Coordinates
version=1
nRows=17
nColumns=36
inDegrees=yes

Units are S.I. units (second, meters, Newtons, ...)
If the header above contains a line with 'inDegrees', this indicates whether rotational values are in degrees (yes) or radians (no).

endheader
time	pelvis_tilt	pelvis_list	pelvis_rotation	pelvis_tx	pelvis_ty	pelvis_tz	hip_flexion_r	hip_adduction_r	hip_rotation_r	knee_angle_r	knee_angle_r_beta	ankle_angle_r	subtalar_angle_r	mtp_angle_r	hip_flexion_l	hip_adduction_l	hip_rotation_l	knee_angle_l	knee_angle_l_beta	ankle_angle_l	subtalar_angle_l	mtp_angle_l	lumbar_extension	lumbar_bending	lumbar_rotation	arm_flex_r	arm_add_r	arm_rot_r	elbow_flex_r	pro_sup_r	arm_flex_l	arm_add_l	arm_rot_l	elbow_flex_l	pro_sup_l
      1.63333330	     -7.60210160	      2.10903193	      4.57180262	     -0.06255334	      1.38006333	     -0.03414215	     19.59429759	     -8.82464471	      7.44435523	     20.25585615	      0.35353138	    -15.53480871	     -0.36210135	     -7.49999963	     26.20792655	     -4.51311468	     -6.97942935	     21.50174533	      0.37527625	    -23.32891260	     -0.50141399	     -7.49999963	    -14.81251548	     -2.55778270	     -0.97304202	     61.54257010	    -23.97855520	     19.08028643	     97.68172833	     90.50915889	     58.57532838	    -30.42926790	     23.05389433	     94.38733573	     80.37068427
      1.65000000	     -7.66712495	      1.82542682	      4.08815574	     -0.02730074	      1.34741501	     -0.02098320	     19.35383332	     -8.26460569	      8.04730234	     16.94557300	      0.29575604	    -17.64185144	      1.25605361	     -7.49999964	     25.48292654	     -5.17400397	     -8.86754385	     18.31192114	      0.31960332	    -25.15180362	      1.38779097	     -7.49999964	    -14.45705556	     -2.14333927	     -1.05297262	     55.79650693	    -22.85518018	     16.35466101	     98.20203920	     89.97717220	     53.01975163	    -29.98827851	     20.84797900	     93.45937354	     79.11410031
      1.66666670	     -7.77428155	      1.55795158	      4.07038979	     -0.01726504	      1.31231287	     -0.02032003	     20.18098996	     -8.28678791	      8.12638859	     15.49787117	      0.27048888	    -17.11039816	      2.59620717	     -7.49999965	     26.71932631	     -5.35943940	     -8.94990610	     17.30476410	      0.30202511	    -26.40673648	      2.62929989	     -7.49999965	    -14.52958437	     -1.45570632	     -0.70456455	     53.08546692	    -20.57912540	     15.62756591	     95.61686779	     89.19700389	     49.08718808	    -29.80991667	     18.69279772	     90.78771582	     77.85996271
      1.68333330	     -7.67178869	      1.45209717	      4.31658734	     -0.00562091	      1.28217973	     -0.02028151	     21.47617820	     -8.30272425	      8.16687334	     14.17394134	      0.24738194	    -18.49052501	      2.48457233	     -7.49999966	     27.19866651	     -5.39234471	     -8.08526261	     15.91171090	      0.27771174	    -27.28645818	      3.69010576	     -7.49999966	    -15.16115177	     -1.05483796	     -0.15175364	     52.41043547	    -18.13720886	     15.98049763	     90.63801018	     88.33684138	     45.45995246	    -29.54642292	     17.18184975	     87.45320124	     76.39555051
      1.70000000	     -7.24115077	      1.13645250	      3.80045287	      0.03159894	      1.24983021	     -0.03023801	     20.88238089	     -8.10811639	      7.62585562	     11.93492439	      0.20830373	    -21.13426954	      3.39075019	     -7.49999969	     26.05794861	     -5.21747693	     -6.92094119	     12.94644900	      0.22595816	    -28.90800943	      4.76365409	     -7.49999969	    -15.61452461	      0.22080713	     -1.74636061	     50.25204154	    -15.72552828	     17.67233625	     86.49157717	     84.92532887	     37.02027223	    -29.76144501	     11.72129997	     90.10546640	     68.50689242
      1.71666670	     -6.59156315	      0.94466042	      3.59729028	      0.05209774	      1.22294111	     -0.02057566	     20.44387258	     -7.86823044	      6.23173151	      9.84886107	      0.17189505	    -23.15055957	      5.19939481	     -7.49999969	     25.21596839	     -5.54954859	     -6.15536066	     12.03050337	      0.20997189	    -30.51798257	      5.46980311	     -7.49999969	    -16.20292871	      0.19519996	     -1.79773545	     43.76503721	    -15.12822646	     14.18858909	     84.80702009	     84.56092733	     32.37968146	    -28.25220063	      9.53510485	     87.71200888	     67.67006954
      1.73333330	     -5.38021380	      0.18377195	      2.77043630	      0.06459849	      1.17646713	     -0.01573413	     20.02867707	     -6.92478735	      5.70233899	      7.81782088	      0.13644671	    -25.81503305	      5.40331026	     -7.49999973	     24.23773592	     -6.78999831	     -5.68550689	     10.58365123	      0.18471956	    -31.23063002	      7.03465584	     -7.49999973	    -17.89735332	      0.77884543	     -0.51419609	     41.26294679	    -13.77192625	     13.12578894	     82.17175410	     82.11754283	     30.45092667	    -26.56987076	      5.55836041	     80.35596294	     59.58621444
      1.75000000	     -4.04477695	     -0.31919846	      2.70266159	      0.09463343	      1.12104741	     -0.02842953	     19.84393019	     -6.64676562	      3.44694751	      8.39507310	      0.14652167	    -25.49097539	      4.20007810	     -7.49999974	     23.27281077	     -7.11994524	     -4.35749051	     10.91908144	      0.19057392	    -31.81198351	      4.37795853	     -7.49999974	    -18.67528618	      1.39626225	      0.26438451	     36.87815023	    -12.80818490	     12.79026401	     81.88974245	     81.60581710	     25.55056642	    -24.14576854	      4.76718735	     80.09112641	     58.96224305
      1.76666670	     -3.25977269	     -0.71645379	      1.96913837	      0.12059263	      1.07537506	     -0.01953631	     19.90733595	     -5.81770260	      2.81767378	      9.53690537	      0.16645040	    -24.88277569	      3.45226149	     -7.49999976	     23.27681358	     -7.85888471	     -3.19480108	     13.67703382	      0.23870927	    -31.01361318	      2.99868781	     -7.49999976	    -19.39306780	      1.52452333	      0.65168407	     34.47421905	    -10.42099473	     15.13233320	     81.76861039	     81.18331271	     15.90044306	    -23.93297450	      2.51954741	     85.43128454	     58.28370268
      1.78333330	     -2.28739827	     -0.61096398	      1.21740519	      0.12976430	      1.03174978	     -0.01775651	     22.30440527	     -5.47933557	      2.67509840	     13.96217947	      0.24368600	    -22.94762538	      2.40148051	     -7.49999978	     24.61637352	     -8.07546847	     -0.45396546	     18.61263048	      0.32485168	    -27.68206602	      0.49460793	     -7.49999978	    -21.35407152	      1.16791666	      0.41662425	     31.91982506	     -8.36915262	     14.86963228	     79.80089073	     80.81098361	     11.02701045	    -23.50163772	     -1.34695914	     85.07688425	     57.90577948
      1.80000000	     -1.57574640	     -0.28419933	      1.09605272	      0.13533190	      0.98145537	     -0.02581180	     25.64080522	     -5.85871828	      2.31219401	     21.54540686	      0.37603829	    -13.96633371	      1.81067089	     -7.49999982	     28.58448647	     -7.23244453	      1.40377088	     29.08136950	      0.50756565	    -17.30436299	     -3.43681326	     -7.49999982	    -24.01493489	      1.06299813	     -0.27777927	     30.63413916	     -7.39962292	     14.38390819	     77.30338651	     80.57399620	      8.85005716	    -22.74197789	     -3.44335586	     83.56127956	     58.21798886
      1.81666670	     -0.79509887	     -0.32241890	      1.28164953	      0.15118204	      0.94025726	     -0.03536704	     30.01197818	     -6.22618184	      2.60582403	     32.84423448	      0.57324003	     -2.71207806	     -0.71107614	     -7.49999984	     33.48551788	     -6.34866866	      2.86490198	     41.83203161	      0.73010668	     -5.05105293	     -6.75922862	     -7.49999984	    -27.31060434	      1.84565825	     -0.48629392	     28.69523995	     -8.51287133	     12.23662701	     74.98473905	     76.05655153	      9.01429331	    -21.61997794	     -5.10339362	     79.74866675	     58.46571983
      1.83333330	     -0.41228901	     -0.59089942	      0.91900995	      0.17526636	      0.89501318	     -0.03558803	     36.63701985	     -5.99999891	      3.94149096	     47.79582723	      0.83419455	      8.44105972	     -1.90923108	     -7.49999986	     39.27024576	     -6.00809835	      4.08940732	     56.51218043	      0.98632362	      7.46816286	     -8.66833053	     -7.49999986	    -30.16003505	      2.53996508	     -0.21974727	     24.92334253	     -9.80209050	      6.41673794	     72.96615561	     82.12724953	      8.85782120	    -19.57891436	     -7.61393501	     75.03546988	     61.23250274
      1.85000000	      0.62946642	     -1.21491955	      0.92406249	      0.18753241	      0.86498791	     -0.02323115	     41.06614085	     -5.15390747	      4.15682834	     60.43694287	      1.05482364	     17.52232727	     -2.21830008	     -7.49999986	     43.15775788	     -6.31536624	      6.39253863	     68.46316952	      1.19490772	     16.51867239	     -9.01111340	     -7.49999986	    -33.63145625	      2.92084316	     -0.15733107	     22.63876720	     -9.98054835	      3.02648184	     69.76025587	     78.47078511	      9.10924949	    -18.67763942	     -9.02683310	     71.24227628	     60.99147414
      1.86666670	      1.25739913	     -2.08129528	      1.34052279	      0.19814749	      0.82825017	     -0.01882848	     45.42769767	     -3.69560432	      3.96139838	     72.03180137	      1.25719210	     24.34660323	     -3.18812341	     -7.49999986	     47.27384387	     -6.99703722	      8.69266628	     78.88078881	      1.37672948	     23.41220953	     -8.21289697	     -7.49999986	    -36.80566002	      2.99789429	      0.89289374	     20.36993869	     -9.61366397	     -2.08139240	     65.89592221	     79.42180087	     10.39440623	    -17.83258095	     -8.61710236	     68.10741440	     61.81275466
      1.88333330	      1.76695222	     -2.62868338	      1.22740450	      0.21299969	      0.80636618	     -0.02193029	     48.26162646	     -2.99600975	      3.54645299	     80.16570724	      1.39915554	     28.85326069	     -2.23302662	     -7.49999986	     49.27133299	     -7.48825995	     10.28440521	     85.37354397	      1.49004944	     27.41990758	     -8.26831546	     -7.49999986	    -39.41786537	      2.90078440	      2.18154418	     19.90739610	     -8.79788785	     -5.12135511	     60.25820223	     81.27300729	     11.75980682	    -16.88635488	     -5.80676752	     63.91395849	     63.05309047
      1.90000000	      2.37472738	     -2.59361886	      1.24071887	      0.21735830	      0.79532405	     -0.02096589	     48.86002289	     -2.89966874	      3.41889570	     84.04270407	      1.46682190	     31.68038871	     -1.24765755	     -7.49999986	     49.65654106	     -7.73234796	     10.68773032	     88.68561547	      1.54785599	     29.02877053	     -8.86826540	     -7.49999986	    -42.43786753	      2.12728365	      3.83201211	     20.82050228	     -7.92700365	     -8.16564520	     55.11585542	     82.76282739	     15.06875371	    -15.45335874	     -2.17338101	     59.15475673	     65.14307297
